<?xml version="1.0" encoding="UTF-8"?>
<!DOCTYPE svg PUBLIC "-//W3C//DTD SVG 1.1//EN" "http://www.w3.org/Graphics/SVG/1.1/DTD/svg11.dtd">
<!-- Creator: CorelDRAW 2018 (64 Bit) -->
<svg xmlns="http://www.w3.org/2000/svg" xml:space="preserve" width="256px" height="362px" version="1.1" style="shape-rendering:geometricPrecision; text-rendering:geometricPrecision; image-rendering:optimizeQuality; fill-rule:evenodd; clip-rule:evenodd"
viewBox="0 0 256 362.06"
 xmlns:xlink="http://www.w3.org/1999/xlink">
 <defs>
  <style type="text/css">
   <![CDATA[
    .fil7 {fill:none}
    .fil1 {fill:#0277BD}
    .fil0 {fill:#039BE5}
    .fil3 {fill:#F57F17}
    .fil2 {fill:#FBC02D}
    .fil9 {fill:#FBC02D}
    .fil5 {fill:#FBC02D;fill-rule:nonzero}
    .fil6 {fill:#FBC02D;fill-rule:nonzero}
    .fil4 {fill:#FFEB3B;fill-rule:nonzero}
    .fil8 {fill:#FFEB3B;fill-rule:nonzero}
   ]]>
  </style>
 </defs>
 <g id="Camada_x0020_1">
  <metadata id="CorelCorpID_0Corel-Layer"/>
  <path class="fil0" d="M93.7 208.19c-0.03,0.87 -0.2,1.73 -0.5,2.54 -0.74,1.96 -2.28,3.61 -4.18,4.47 -2.39,1.08 -5.31,0.89 -7.53,-0.49 -0.67,-0.42 -1.27,-0.93 -1.79,-1.52 -0.47,-0.52 -0.54,-0.69 -0.92,-1.27l-61.71 -106.89c-0.12,-0.23 -0.25,-0.46 -0.36,-0.7 -1.18,-2.61 -0.83,-5.86 0.95,-8.17 0.47,-0.63 1.04,-1.18 1.68,-1.64 0.21,-0.15 0.44,-0.28 0.66,-0.42l41.57 -24c0.23,-0.12 0.46,-0.25 0.69,-0.36 0.48,-0.22 0.98,-0.38 1.49,-0.5 0.68,-0.16 0.87,-0.15 1.55,-0.2 0.27,0 0.53,0 0.8,0 0.68,0.08 0.87,0.08 1.54,0.26 1.52,0.41 2.9,1.27 3.94,2.46 0.47,0.52 0.54,0.68 0.92,1.27l55.5 96.13 55.5 -96.13c0.38,-0.59 0.45,-0.75 0.92,-1.27 1.38,-1.58 3.4,-2.58 5.48,-2.72 0.53,-0.03 1.05,0.01 1.57,0.06 0.69,0.12 0.87,0.13 1.53,0.35 0.66,0.23 0.81,0.33 1.43,0.65l41.57 24c0.22,0.14 0.45,0.27 0.66,0.42 2.54,1.83 3.86,5.21 3.13,8.32 -0.12,0.52 -0.29,1.01 -0.5,1.49 -0.11,0.24 -0.24,0.47 -0.36,0.7l-61.36 106.28c-0.15,0.21 -0.27,0.45 -0.43,0.65 -1.82,2.55 -5.2,3.86 -8.32,3.14 -2.04,-0.48 -3.87,-1.79 -4.97,-3.57 -0.63,-1.01 -1.02,-2.16 -1.15,-3.34l-69 0 0 0z"/>
  <path class="fil1" d="M128 169.16l55.5 -96.13c0.38,-0.59 0.45,-0.75 0.92,-1.27 1.38,-1.58 3.4,-2.58 5.48,-2.72 0.53,-0.03 1.05,0.01 1.57,0.06 0.69,0.12 0.87,0.13 1.53,0.35 0.66,0.23 0.81,0.33 1.43,0.65l41.57 24c0.22,0.14 0.45,0.27 0.66,0.42 2.54,1.83 3.86,5.21 3.13,8.32 -0.12,0.52 -0.29,1.01 -0.5,1.49 -0.11,0.24 -0.24,0.47 -0.36,0.7l-61.36 106.28c-0.15,0.21 -0.27,0.45 -0.43,0.65 -1.82,2.55 -5.2,3.86 -8.32,3.14 -2.04,-0.48 -3.87,-1.79 -4.97,-3.57 -0.63,-1.01 -1.02,-2.16 -1.15,-3.34l-34.7 0 0 -39.03 0 0z"/>
  <circle class="fil2" cx="128" cy="237.03" r="48"/>
  <path class="fil3" d="M128 189.03c26.49,0 48,21.51 48,48 0,26.49 -21.51,48 -48,48l0 -96z"/>
  <path class="fil4" d="M128.09 181.03c7.76,0.01 15.54,1.65 22.65,4.81 11.73,5.23 21.56,14.61 27.32,26.08 5.06,10.07 6.96,21.69 5.41,32.84 -1.27,9.16 -4.86,17.97 -10.36,25.44 -6.93,9.41 -16.84,16.59 -28.05,20.18 -12.53,4 -26.47,3.42 -38.62,-1.66 -9.58,-4 -17.98,-10.72 -24,-19.14 -6.7,-9.34 -10.38,-20.79 -10.44,-32.28 -0.04,-9.02 2.12,-18.06 6.29,-26.06 5.83,-11.22 15.58,-20.37 27.13,-25.47 7.11,-3.13 14.88,-4.75 22.67,-4.74l0 0zm-0.15 16c-7.72,0.01 -15.44,2.31 -21.89,6.56 -8.79,5.79 -15.17,15.13 -17.26,25.49 -1.69,8.41 -0.62,17.36 3.07,25.11 4.81,10.09 14.01,18.01 24.78,21.2 8.7,2.57 18.24,2.09 26.64,-1.39 9.02,-3.73 16.58,-10.88 20.8,-19.7 4.5,-9.37 5.15,-20.51 1.72,-30.38 -2.87,-8.27 -8.54,-15.52 -15.85,-20.33 -6.16,-4.05 -13.47,-6.35 -20.85,-6.55 -0.39,0 -0.78,-0.01 -1.16,-0.01l0 0z"/>
  <path class="fil5" d="M128 181.03l0.09 0c7.76,0.01 15.54,1.65 22.65,4.81 11.73,5.23 21.56,14.61 27.32,26.08 5.06,10.07 6.96,21.69 5.41,32.84 -1.27,9.16 -4.86,17.97 -10.36,25.44 -6.93,9.41 -16.84,16.59 -28.05,20.18 -5.51,1.76 -11.28,2.63 -17.06,2.62l0 -15.98c5.22,0 10.44,-1.02 15.28,-3.02 9.02,-3.73 16.58,-10.88 20.8,-19.7 4.5,-9.37 5.15,-20.51 1.72,-30.38 -2.87,-8.27 -8.54,-15.52 -15.85,-20.33 -6.16,-4.05 -13.47,-6.35 -20.85,-6.55 -0.36,0 -0.73,-0.01 -1.1,-0.01l0 -16 0 0z"/>
  <path class="fil4" d="M120 234.26c-0.22,-0.07 -0.43,-0.14 -0.65,-0.23 -2.43,-1.01 -4.31,-3.28 -4.81,-5.9 -0.47,-2.46 0.3,-5.13 2.02,-6.97 0.08,-0.08 0.1,-0.1 0.18,-0.19l5.66 -5.65c1.49,-1.47 3.49,-2.32 5.56,-2.35 0.09,0 0.18,0 0.26,0 0.12,0.01 0.16,0.01 0.28,0.01 2.76,0.15 5.4,1.86 6.68,4.34 0.71,1.39 0.99,2.99 0.82,4.54l0 23.17c0.07,0 0.15,0 0.22,0 0.2,0.01 0.25,0.01 0.45,0.03 2.99,0.25 5.73,2.29 6.8,5.11 1.07,2.79 0.43,6.15 -1.65,8.35 -1.5,1.58 -3.62,2.48 -5.82,2.51l-16 0c-2.41,-0.03 -4.77,-1.15 -6.26,-3.02 -1.76,-2.21 -2.24,-5.38 -1.13,-8.05 0.77,-1.86 2.28,-3.41 4.13,-4.24 1.02,-0.45 2.14,-0.68 3.26,-0.69l0 -10.77 0 0z"/>
  <path class="fil6" d="M128 212.97c0.07,0 0.15,0 0.22,0 0.12,0.01 0.16,0.01 0.28,0.01 2.76,0.15 5.4,1.86 6.68,4.34 0.71,1.39 0.99,2.99 0.82,4.54l0 23.17c0.07,0 0.15,0 0.22,0 0.2,0.01 0.25,0.01 0.45,0.03 2.99,0.25 5.73,2.29 6.8,5.11 1.07,2.79 0.43,6.15 -1.65,8.35 -1.49,1.58 -3.62,2.48 -5.82,2.51l-8 0 0 -48.06 0 0z"/>
  <rect id="Achievement" class="fil7" y="53.03" width="256" height="256"/>
  <path class="fil0" d="M93.7 208.19c-0.03,0.87 -0.2,1.73 -0.5,2.54 -0.74,1.96 -2.28,3.61 -4.18,4.47 -2.39,1.08 -5.31,0.89 -7.53,-0.49 -0.67,-0.42 -1.27,-0.93 -1.79,-1.52 -0.47,-0.52 -0.54,-0.69 -0.92,-1.27l-61.71 -106.89c-0.12,-0.23 -0.25,-0.46 -0.36,-0.7 -1.18,-2.61 -0.83,-5.86 0.95,-8.17 0.47,-0.63 1.04,-1.18 1.68,-1.64 0.21,-0.15 0.44,-0.28 0.66,-0.42l41.57 -24c0.23,-0.12 0.46,-0.25 0.69,-0.36 0.48,-0.22 0.98,-0.38 1.49,-0.5 0.68,-0.16 0.87,-0.15 1.55,-0.2 0.27,0 0.53,0 0.8,0 0.68,0.08 0.87,0.08 1.54,0.26 1.52,0.41 2.9,1.27 3.94,2.46 0.47,0.52 0.54,0.68 0.92,1.27l55.5 96.13 55.5 -96.13c0.38,-0.59 0.45,-0.75 0.92,-1.27 1.38,-1.58 3.4,-2.58 5.48,-2.72 0.53,-0.03 1.05,0.01 1.57,0.06 0.69,0.12 0.87,0.13 1.53,0.35 0.66,0.23 0.81,0.33 1.43,0.65l41.57 24c0.22,0.14 0.45,0.27 0.66,0.42 2.54,1.83 3.86,5.21 3.13,8.32 -0.12,0.52 -0.29,1.01 -0.5,1.49 -0.11,0.24 -0.24,0.47 -0.36,0.7l-61.36 106.28c-0.15,0.21 -0.27,0.45 -0.43,0.65 -1.82,2.55 -5.2,3.86 -8.32,3.14 -2.04,-0.48 -3.87,-1.79 -4.97,-3.57 -0.63,-1.01 -1.02,-2.16 -1.15,-3.34l-69 0 0 0z"/>
  <path class="fil1" d="M128 169.16l55.5 -96.13c0.38,-0.59 0.45,-0.75 0.92,-1.27 1.38,-1.58 3.4,-2.58 5.48,-2.72 0.53,-0.03 1.05,0.01 1.57,0.06 0.69,0.12 0.87,0.13 1.53,0.35 0.66,0.23 0.81,0.33 1.43,0.65l41.57 24c0.22,0.14 0.45,0.27 0.66,0.42 2.54,1.83 3.86,5.21 3.13,8.32 -0.12,0.52 -0.29,1.01 -0.5,1.49 -0.11,0.24 -0.24,0.47 -0.36,0.7l-61.36 106.28c-0.15,0.21 -0.27,0.45 -0.43,0.65 -1.82,2.55 -5.2,3.86 -8.32,3.14 -2.04,-0.48 -3.87,-1.79 -4.97,-3.57 -0.63,-1.01 -1.02,-2.16 -1.15,-3.34l-34.7 0 0 -39.03 0 0z"/>
  <circle class="fil2" cx="128" cy="237.03" r="48"/>
  <path class="fil3" d="M128 189.03c26.49,0 48,21.51 48,48 0,26.49 -21.51,48 -48,48l0 -96z"/>
  <path class="fil3" d="M128 240.35l0 -8.27c1.06,-0.07 1.86,-0.21 2.39,-0.4 0.85,-0.31 1.5,-0.81 2,-1.52 0.48,-0.71 0.72,-1.57 0.72,-2.58 0,-1.74 -0.68,-3.02 -2.04,-3.81 -0.65,-0.4 -1.68,-0.66 -3.07,-0.8l0 -8.3c2.75,0.2 4.87,0.61 6.35,1.22 2.17,0.91 3.89,2.39 5.15,4.41 1.25,2.03 1.88,4.46 1.88,7.3 0,3.14 -0.83,5.75 -2.48,7.83 -1.64,2.08 -3.87,3.53 -6.7,4.34 -0.95,0.27 -2.35,0.46 -4.2,0.58z"/>
  <path class="fil4" d="M128.09 181.03c7.76,0.01 15.54,1.65 22.65,4.81 11.73,5.23 21.56,14.61 27.32,26.08 5.06,10.07 6.96,21.69 5.41,32.84 -1.27,9.16 -4.86,17.97 -10.36,25.44 -6.93,9.41 -16.84,16.59 -28.05,20.18 -12.53,4 -26.47,3.42 -38.62,-1.66 -9.58,-4 -17.98,-10.72 -24,-19.14 -6.7,-9.34 -10.38,-20.79 -10.44,-32.28 -0.04,-9.02 2.12,-18.06 6.29,-26.06 5.83,-11.22 15.58,-20.37 27.13,-25.47 7.11,-3.13 14.88,-4.75 22.67,-4.74l0 0zm-0.15 16c-7.72,0.01 -15.44,2.31 -21.89,6.56 -8.79,5.79 -15.17,15.13 -17.26,25.49 -1.69,8.41 -0.62,17.36 3.07,25.11 4.81,10.09 14.01,18.01 24.78,21.2 8.7,2.57 18.24,2.09 26.64,-1.39 9.02,-3.73 16.58,-10.88 20.8,-19.7 4.5,-9.37 5.15,-20.51 1.72,-30.38 -2.87,-8.27 -8.54,-15.52 -15.85,-20.33 -6.16,-4.05 -13.47,-6.35 -20.85,-6.55 -0.39,0 -0.78,-0.01 -1.16,-0.01l0 0z"/>
  <path class="fil5" d="M128 181.03l0.09 0c7.76,0.01 15.54,1.65 22.65,4.81 11.73,5.23 21.56,14.61 27.32,26.08 5.06,10.07 6.96,21.69 5.41,32.84 -1.27,9.16 -4.86,17.97 -10.36,25.44 -6.93,9.41 -16.84,16.59 -28.05,20.18 -5.51,1.76 -11.28,2.63 -17.06,2.62l0 -15.98c5.22,0 10.44,-1.02 15.28,-3.02 9.02,-3.73 16.58,-10.88 20.8,-19.7 4.5,-9.37 5.15,-20.51 1.72,-30.38 -2.87,-8.27 -8.54,-15.52 -15.85,-20.33 -6.16,-4.05 -13.47,-6.35 -20.85,-6.55 -0.36,0 -0.73,-0.01 -1.1,-0.01l0 -16 0 0z"/>
  <path class="fil8" d="M123.74 214.54l8.62 0 17.31 44.98 -8.9 0 -3.51 -9.27 -18.44 0 -3.59 9.27 -8.91 0 17.42 -44.98zm4.32 11.95l-6.1 15.49 12.17 0 -6.07 -15.49z"/>
  <polygon class="fil9" points="128,214.54 132.36,214.54 149.67,259.52 140.77,259.52 137.26,250.25 128,250.25 128,241.98 134.13,241.98 128.06,226.49 128,226.64 "/>
 </g>
</svg>
