<?xml version="1.0" encoding="UTF-8"?>
<!DOCTYPE svg PUBLIC "-//W3C//DTD SVG 1.1//EN" "http://www.w3.org/Graphics/SVG/1.1/DTD/svg11.dtd">
<!-- Creator: CorelDRAW 2018 (64 Bit) -->
<svg xmlns="http://www.w3.org/2000/svg" xml:space="preserve" width="128px" height="128px" version="1.1" style="shape-rendering:geometricPrecision; text-rendering:geometricPrecision; image-rendering:optimizeQuality; fill-rule:evenodd; clip-rule:evenodd"
viewBox="0 0 107.62 107.6"
 xmlns:xlink="http://www.w3.org/1999/xlink">
 <defs>
  <style type="text/css">
   <![CDATA[
    .fil1 {fill:#F57F17}
    .fil0 {fill:#FBC02D}
    .fil3 {fill:#FBC02D;fill-rule:nonzero}
    .fil4 {fill:#FBC02D;fill-rule:nonzero}
    .fil2 {fill:#FFEB3B;fill-rule:nonzero}
   ]]>
  </style>
 </defs>
 <g id="Camada_x0020_1">
  <metadata id="CorelCorpID_0Corel-Layer"/>
  <g id="_1782466389088">
   <circle class="fil0" cx="53.81" cy="53.81" r="46.12"/>
   <path class="fil1" d="M53.81 7.69c25.45,0 46.12,20.67 46.12,46.12 0,25.45 -20.67,46.12 -46.12,46.12l0 -92.24z"/>
   <path class="fil2" d="M53.9 0c7.45,0.02 14.93,1.59 21.76,4.63 11.28,5.02 20.71,14.03 26.25,25.05 4.87,9.68 6.69,20.85 5.2,31.56 -1.22,8.8 -4.67,17.27 -9.95,24.44 -6.67,9.05 -16.18,15.94 -26.96,19.4 -12.04,3.84 -25.43,3.28 -37.11,-1.6 -9.2,-3.85 -17.27,-10.3 -23.06,-18.39 -6.43,-8.98 -9.98,-19.98 -10.03,-31.02 -0.04,-8.67 2.04,-17.35 6.04,-25.04 5.61,-10.78 14.98,-19.57 26.08,-24.47 6.82,-3.01 14.3,-4.57 21.78,-4.56l0 0zm-0.15 15.37c-7.42,0.02 -14.83,2.23 -21.03,6.31 -8.44,5.56 -14.58,14.53 -16.58,24.5 -1.63,8.08 -0.6,16.67 2.95,24.12 4.62,9.69 13.46,17.31 23.81,20.37 8.35,2.48 17.52,2.01 25.59,-1.33 8.67,-3.59 15.93,-10.46 19.99,-18.93 4.33,-9 4.95,-19.71 1.65,-29.2 -2.76,-7.94 -8.21,-14.9 -15.23,-19.53 -5.91,-3.89 -12.94,-6.1 -20.03,-6.29 -0.37,-0.01 -0.75,-0.02 -1.12,-0.02l0 0z"/>
   <path class="fil3" d="M53.81 0l0.09 0c7.45,0.02 14.93,1.59 21.76,4.63 11.28,5.02 20.71,14.03 26.25,25.05 4.87,9.68 6.69,20.85 5.2,31.56 -1.22,8.8 -4.67,17.27 -9.95,24.44 -6.67,9.05 -16.18,15.94 -26.96,19.4 -5.29,1.69 -10.84,2.53 -16.39,2.52l0 -15.36c5.01,0 10.03,-0.98 14.68,-2.9 8.67,-3.59 15.93,-10.46 19.99,-18.93 4.33,-9 4.95,-19.71 1.65,-29.2 -2.76,-7.94 -8.21,-14.9 -15.23,-19.53 -5.91,-3.89 -12.94,-6.1 -20.03,-6.29 -0.35,-0.01 -0.71,-0.02 -1.06,-0.02l0 -15.37 0 0z"/>
   <path class="fil2" d="M46.12 51.15c-0.2,-0.07 -0.41,-0.14 -0.62,-0.22 -2.34,-0.97 -4.14,-3.15 -4.62,-5.67 -0.45,-2.37 0.29,-4.93 1.94,-6.69 0.08,-0.09 0.09,-0.1 0.18,-0.19l5.43 -5.43c1.43,-1.41 3.35,-2.23 5.34,-2.26 0.09,0 0.17,0 0.26,0 0.11,0.01 0.14,0.01 0.26,0.01 2.66,0.15 5.19,1.79 6.42,4.17 0.68,1.34 0.95,2.87 0.79,4.37l0 22.26c0.07,0 0.14,0 0.21,0 0.2,0.01 0.24,0.01 0.43,0.03 2.87,0.24 5.51,2.2 6.54,4.91 1.02,2.68 0.41,5.91 -1.59,8.03 -1.44,1.51 -3.48,2.37 -5.59,2.4l-15.38 0c-2.31,-0.03 -4.58,-1.1 -6.01,-2.9 -1.7,-2.13 -2.15,-5.17 -1.09,-7.73 0.75,-1.79 2.19,-3.28 3.97,-4.07 0.98,-0.44 2.06,-0.66 3.13,-0.67l0 -10.35 0 0z"/>
   <path class="fil4" d="M53.81 30.69c0.07,0 0.15,0 0.22,0 0.11,0.01 0.14,0.01 0.26,0.01 2.66,0.15 5.19,1.79 6.42,4.17 0.68,1.34 0.95,2.87 0.79,4.37l0 22.26c0.07,0 0.14,0 0.21,0 0.2,0.01 0.24,0.01 0.43,0.03 2.87,0.24 5.51,2.2 6.54,4.91 1.02,2.68 0.41,5.91 -1.59,8.03 -1.43,1.51 -3.48,2.37 -5.59,2.4l-7.69 0 0 -46.17 0 -0.01z"/>
   <circle class="fil0" cx="53.81" cy="53.81" r="46.12"/>
   <path class="fil1" d="M53.81 7.69c25.45,0 46.12,20.67 46.12,46.12 0,25.45 -20.67,46.12 -46.12,46.12l0 -92.24z"/>
   <path class="fil1" d="M53.81 57l0 -7.95c1.02,-0.06 1.78,-0.19 2.3,-0.38 0.81,-0.3 1.44,-0.78 1.91,-1.46 0.47,-0.68 0.7,-1.51 0.7,-2.48 0,-1.68 -0.65,-2.9 -1.96,-3.66 -0.62,-0.38 -1.61,-0.64 -2.95,-0.77l0 -7.97c2.65,0.19 4.68,0.58 6.1,1.17 2.09,0.88 3.74,2.29 4.95,4.24 1.2,1.94 1.8,4.28 1.8,7.01 0,3.02 -0.79,5.53 -2.37,7.53 -1.58,1.99 -3.73,3.39 -6.45,4.17 -0.91,0.26 -2.26,0.44 -4.03,0.55z"/>
   <path class="fil2" d="M53.9 0c7.45,0.02 14.93,1.59 21.76,4.63 11.28,5.02 20.71,14.03 26.25,25.05 4.87,9.68 6.69,20.85 5.2,31.56 -1.22,8.8 -4.67,17.27 -9.95,24.44 -6.67,9.05 -16.18,15.94 -26.96,19.4 -12.04,3.84 -25.43,3.28 -37.11,-1.6 -9.2,-3.85 -17.27,-10.3 -23.06,-18.39 -6.43,-8.98 -9.98,-19.98 -10.03,-31.02 -0.04,-8.67 2.04,-17.35 6.04,-25.04 5.61,-10.78 14.98,-19.57 26.08,-24.47 6.82,-3.01 14.3,-4.57 21.78,-4.56l0 0zm-0.15 15.37c-7.42,0.02 -14.83,2.23 -21.03,6.31 -8.44,5.56 -14.58,14.53 -16.58,24.5 -1.63,8.08 -0.6,16.67 2.95,24.12 4.62,9.69 13.46,17.31 23.81,20.37 8.35,2.48 17.52,2.01 25.59,-1.33 8.67,-3.59 15.93,-10.46 19.99,-18.93 4.33,-9 4.95,-19.71 1.65,-29.2 -2.76,-7.94 -8.21,-14.9 -15.23,-19.53 -5.91,-3.89 -12.94,-6.1 -20.03,-6.29 -0.37,-0.01 -0.75,-0.02 -1.12,-0.02l0 0z"/>
   <path class="fil3" d="M53.81 0l0.09 0c7.45,0.02 14.93,1.59 21.76,4.63 11.28,5.02 20.71,14.03 26.25,25.05 4.87,9.68 6.69,20.85 5.2,31.56 -1.22,8.8 -4.67,17.27 -9.95,24.44 -6.67,9.05 -16.18,15.94 -26.96,19.4 -5.29,1.69 -10.84,2.53 -16.39,2.52l0 -15.36c5.01,0 10.03,-0.98 14.68,-2.9 8.67,-3.59 15.93,-10.46 19.99,-18.93 4.33,-9 4.95,-19.71 1.65,-29.2 -2.76,-7.94 -8.21,-14.9 -15.23,-19.53 -5.91,-3.89 -12.94,-6.1 -20.03,-6.29 -0.35,-0.01 -0.71,-0.02 -1.06,-0.02l0 -15.37 0 0z"/>
  </g>
 </g>
</svg>
