<?xml version="1.0" encoding="UTF-8"?>
<!DOCTYPE svg PUBLIC "-//W3C//DTD SVG 1.1//EN" "http://www.w3.org/Graphics/SVG/1.1/DTD/svg11.dtd">
<!-- Creator: CorelDRAW 2018 (64 Bit) -->
<svg xmlns="http://www.w3.org/2000/svg" xml:space="preserve" width="256px" height="256px" version="1.1" style="shape-rendering:geometricPrecision; text-rendering:geometricPrecision; image-rendering:optimizeQuality; fill-rule:evenodd; clip-rule:evenodd"
viewBox="0 0 256 256"
 xmlns:xlink="http://www.w3.org/1999/xlink">
 <defs>
  <style type="text/css">
   <![CDATA[
    .fil3 {fill:#0091DC}
    .fil2 {fill:#00CDFF}
    .fil5 {fill:#141B73}
    .fil4 {fill:#3440DB}
    .fil1 {fill:#D2DCE7}
    .fil0 {fill:#EEF5FD}
    .fil6 {fill:#727376;fill-rule:nonzero}
   ]]>
  </style>
 </defs>
 <g id="Camada_x0020_1">
  <metadata id="CorelCorpID_0Corel-Layer"/>
  <g id="_1782463760848">
   <path class="fil0" d="M119.38 113c-2.77,0.5 -5.32,0.76 -7.93,1.46 -2.39,0.63 -5.43,1.71 -7.6,2.04 -0.48,0.35 -9.22,4.11 -12.63,6.21 -2.05,1.26 -3.9,2.48 -5.68,3.82 -1.53,1.14 -4.04,3.34 -5.54,3.97 -2.49,3.73 -10.3,8.57 -17.34,23.66 -0.81,1.74 -1.3,3.14 -1.97,5.03 -0.77,2.15 -1.21,2.86 -1.8,5.2 -2.88,11.47 -3.77,24.53 -0.79,36.51 8.05,32.42 36.31,55.1 69.94,55.1 8.09,0 15.92,-0.82 23.61,-3.85 6.42,-2.52 12.52,-5.25 18.07,-9.44 8.19,-6.19 11.16,-9.23 17.21,-17.28 2.2,-2.92 6.31,-10.32 7.51,-13.49 5.91,-15.72 7.34,-28.83 2.77,-47.15 -2.27,-9.07 -8.35,-20.04 -14.36,-27.15 -2.22,-2.62 -5.04,-4.36 -6.85,-7.17 -1.16,-0.49 -3.91,-2.83 -5.19,-3.79 -1.87,-1.41 -3.32,-2.42 -5.33,-3.66 -4.15,-2.55 -7.63,-3.71 -11.84,-5.93 -3.91,-1.07 -7.37,-2.56 -11.84,-3.37 -4.88,-0.88 -8.67,-1.15 -13.78,-1.25l-8.64 0.53z"/>
   <path class="fil1" d="M126 255.97c0.68,0.02 1.36,0.03 2.04,0.03 8.09,0 15.92,-0.82 23.61,-3.85 6.42,-2.52 12.52,-5.25 18.07,-9.44 8.19,-6.19 11.16,-9.23 17.21,-17.28 2.2,-2.92 6.31,-10.32 7.51,-13.49 5.91,-15.72 7.34,-28.83 2.77,-47.15 -2.27,-9.07 -8.35,-20.04 -14.36,-27.15 -2.22,-2.62 -5.04,-4.36 -6.85,-7.17 -1.16,-0.49 -3.91,-2.83 -5.19,-3.79 -1.87,-1.41 -3.32,-2.42 -5.33,-3.66 -4.15,-2.55 -7.63,-3.71 -11.84,-5.93 -3.91,-1.07 -7.37,-2.56 -11.84,-3.37 -4.88,-0.88 -8.67,-1.15 -13.78,-1.25l-2.02 0.13 0 143.37z"/>
   <path class="fil2" d="M80 130.5c1.5,-0.63 4.01,-2.83 5.54,-3.97 1.78,-1.34 3.63,-2.56 5.68,-3.82 3.41,-2.1 12.15,-5.86 12.63,-6.21l-78.12 -116.5 -1.38 0c-4.37,0 -8.75,0.01 -13.12,0l-1.37 0c-5.09,0.03 -7.8,0.44 -9.33,4.53 -0.28,0.72 -0.44,1.4 -0.53,2.05l0 1.96c0.36,2.62 2.09,4.59 3.4,6.56l29.6 44.4c7.88,11.82 15.66,23.5 23.6,35.4 1.66,2.48 22.88,33.65 23.4,35.6z"/>
   <path class="fil3" d="M152.88 115.4c0.34,0.79 0.29,0.77 0.76,1.69 4.21,2.22 7.69,3.38 11.84,5.93 2.01,1.24 3.46,2.25 5.33,3.66 1.28,0.96 4.03,3.3 5.19,3.79 0.63,-2.27 70.87,-106.77 76.4,-115.07 1.36,-2.04 3.24,-4.12 3.6,-6.89l0 -1.92c-0.08,-0.65 -0.25,-1.33 -0.53,-2.06 -1.45,-3.89 -4,-4.49 -8.89,-4.53l-1.55 0c-4.61,0.02 -9.21,0 -13.82,0l-0.95 0 -77.38 115.4z"/>
   <path class="fil2" d="M119.38 113l8.64 -0.53c5.11,0.1 8.9,0.37 13.78,1.25 4.47,0.81 7.93,2.3 11.84,3.37 -0.47,-0.92 -0.42,-0.9 -0.76,-1.69l-8.86 -13.31c-2.05,-2.03 -6.44,-9.38 -8.35,-12.24 -1.63,-2.44 -7.26,-10.01 -7.65,-12.35 -1.37,-0.98 -14.16,-20.7 -16.22,-23.8 -5.52,-8.28 -10.71,-16.07 -16.2,-24.3 -5.48,-8.22 -10.67,-16.12 -16.19,-24.31 -2.54,-3.77 -4,-4.83 -6.91,-5.09l-8 0c-6.9,0 -13.81,0 -20.71,0l9.44 14.27c3.19,4.73 6.16,9.32 9.4,14.11l52.07 77.42c1.35,1.99 3.79,5.19 4.68,7.2z"/>
   <path class="fil3" d="M128.02 77.5c0.39,2.34 6.02,9.91 7.65,12.35 1.91,2.86 6.3,10.21 8.35,12.24 1.14,-2.57 31.69,-47.6 34.03,-51.05 2.79,-4.13 32.61,-47.85 34.16,-51.04l-0.17 0 -27.16 0c-1.38,0.04 -2.35,0.1 -2.7,0.18 -2.56,0.56 -4.08,2.71 -5.39,4.61 -5.63,8.15 -10.73,16.11 -16.19,24.31 -1.84,2.76 -31.07,47.27 -32.58,48.4z"/>
   <path class="fil4" d="M103.85 116.5c2.17,-0.33 5.21,-1.41 7.6,-2.04 2.61,-0.7 5.16,-0.96 7.93,-1.46 -0.89,-2.01 -3.33,-5.21 -4.68,-7.2l-52.07 -77.42c-3.24,-4.79 -6.21,-9.38 -9.4,-14.11l-9.44 -14.27 -18.06 0 78.12 116.5z"/>
   <path class="fil5" d="M144.02 102.09l8.86 13.31 77.38 -115.4 -18.05 0c-1.55,3.19 -31.37,46.91 -34.16,51.04 -2.34,3.45 -32.89,48.48 -34.03,51.05z"/>
   <path class="fil6" d="M108.9 181.05c-1.47,5.27 -3.52,13.22 -6.17,23.87 -0.62,3.68 -1.22,7.33 -1.8,10.98 -1.33,4.62 -3.8,6.94 -7.4,6.94 -2.25,0 -4.03,-0.77 -5.33,-2.3 -1.12,-1.3 -1.67,-2.85 -1.67,-4.64 0,-5.28 1.13,-11.7 3.38,-19.28 3.35,-11.37 5.17,-17.67 5.44,-18.9 0.93,-5.02 1.9,-10.03 2.88,-15.05 1.47,-6.9 3.05,-11.5 4.77,-13.78 1.71,-2.3 3.86,-3.45 6.48,-3.45 2.97,0 5.15,1.5 6.55,4.5 1.3,2.83 2.7,8.61 4.2,17.38 1.42,8.5 3.55,17.65 6.38,27.45 3.72,-9.67 7.19,-20.27 10.37,-31.82l2.75 -11.23c1.77,-4.65 4.48,-6.98 8.17,-6.98 3.56,0 6.2,2.7 7.93,8.11 0.72,2.17 1.48,6.25 2.3,12.2 1.9,13.89 4.27,25.77 7.15,35.67 2.9,10.07 4.35,15.55 4.35,16.42 0,1.93 -0.77,3.53 -2.28,4.83 -1.44,1.18 -3.04,1.77 -4.84,1.77 -3.53,0 -6.16,-2.55 -7.88,-7.64l-2.77 -11.83c-1.58,-5.87 -3.28,-14.28 -5.13,-25.27 -1.47,4.35 -3.9,11.22 -7.3,20.55l-2.93 9c-1.2,3.55 -2.47,6.47 -3.77,8.74 -1.73,3.03 -4.15,4.55 -7.25,4.55 -3.07,0 -5.42,-1.8 -7.05,-5.42l-2.72 -9.08c-2.53,-8.35 -4.81,-17.1 -6.81,-26.29z"/>
   <path class="fil1" d="M108.9 181.05c-1.47,5.27 -3.52,13.22 -6.17,23.87 -0.62,3.68 -1.22,7.33 -1.8,10.98 -1.33,4.62 -3.8,6.94 -7.4,6.94 -2.25,0 -4.03,-0.77 -5.33,-2.3 -1.12,-1.3 -1.67,-2.85 -1.67,-4.64 0,-5.28 1.13,-11.7 3.38,-19.28 3.35,-11.37 5.17,-17.67 5.44,-18.9 0.93,-5.02 1.9,-10.03 2.88,-15.05 1.47,-6.9 3.05,-11.5 4.77,-13.78 1.71,-2.3 3.86,-3.45 6.48,-3.45 2.97,0 5.15,1.5 6.55,4.5 1.3,2.83 2.7,8.61 4.2,17.38 1.42,8.5 3.55,17.65 6.38,27.45l0.39 -1.01 0 27.95c-0.49,0.08 -0.99,0.13 -1.52,0.13 -3.07,0 -5.42,-1.8 -7.05,-5.42l-2.72 -9.08c-2.53,-8.35 -4.81,-17.1 -6.81,-26.29z"/>
  </g>
 </g>
</svg>
